<mxfile host="app.diagrams.net" modified="2024-05-05T14:51:23.094Z" agent="Mozilla/5.0 (X11; Linux x86_64) AppleWebKit/537.36 (KHTML, like Gecko) Chrome/124.0.0.0 Safari/537.36" etag="0Ye7Pp81aP6BnmQv8pOm" version="24.3.1" type="device">
  <diagram id="C5RBs43oDa-KdzZeNtuy" name="Page-1">
    <mxGraphModel dx="3312" dy="1433" grid="1" gridSize="10" guides="1" tooltips="1" connect="1" arrows="1" fold="1" page="1" pageScale="1" pageWidth="827" pageHeight="1169" math="0" shadow="0">
      <root>
        <mxCell id="WIyWlLk6GJQsqaUBKTNV-0" />
        <mxCell id="WIyWlLk6GJQsqaUBKTNV-1" parent="WIyWlLk6GJQsqaUBKTNV-0" />
        <mxCell id="l0hXxtKMvYqcRxEXDyRQ-0" value="" style="rounded=1;whiteSpace=wrap;html=1;fontSize=20;" parent="WIyWlLk6GJQsqaUBKTNV-1" vertex="1">
          <mxGeometry x="-120" y="140" width="990" height="220" as="geometry" />
        </mxCell>
        <mxCell id="l0hXxtKMvYqcRxEXDyRQ-1" value="AMF" style="rounded=1;whiteSpace=wrap;html=1;fontSize=20;" parent="WIyWlLk6GJQsqaUBKTNV-1" vertex="1">
          <mxGeometry x="330" y="170" width="120" height="60" as="geometry" />
        </mxCell>
        <mxCell id="l0hXxtKMvYqcRxEXDyRQ-2" value="AUSF" style="rounded=1;whiteSpace=wrap;html=1;fontSize=20;" parent="WIyWlLk6GJQsqaUBKTNV-1" vertex="1">
          <mxGeometry x="460" y="170" width="120" height="60" as="geometry" />
        </mxCell>
        <mxCell id="l0hXxtKMvYqcRxEXDyRQ-3" value="BSF" style="rounded=1;whiteSpace=wrap;html=1;fontSize=20;" parent="WIyWlLk6GJQsqaUBKTNV-1" vertex="1">
          <mxGeometry x="40" y="270" width="120" height="60" as="geometry" />
        </mxCell>
        <mxCell id="l0hXxtKMvYqcRxEXDyRQ-4" value="SCP" style="rounded=1;whiteSpace=wrap;html=1;fontSize=20;" parent="WIyWlLk6GJQsqaUBKTNV-1" vertex="1">
          <mxGeometry x="40" y="170" width="120" height="60" as="geometry" />
        </mxCell>
        <mxCell id="l0hXxtKMvYqcRxEXDyRQ-5" value="PCF" style="rounded=1;whiteSpace=wrap;html=1;fontSize=20;" parent="WIyWlLk6GJQsqaUBKTNV-1" vertex="1">
          <mxGeometry x="590" y="170" width="120" height="60" as="geometry" />
        </mxCell>
        <mxCell id="l0hXxtKMvYqcRxEXDyRQ-6" value="UDR" style="rounded=1;whiteSpace=wrap;html=1;fontSize=20;" parent="WIyWlLk6GJQsqaUBKTNV-1" vertex="1">
          <mxGeometry x="200" y="270" width="120" height="60" as="geometry" />
        </mxCell>
        <mxCell id="l0hXxtKMvYqcRxEXDyRQ-7" value="UDM" style="rounded=1;whiteSpace=wrap;html=1;fontSize=20;" parent="WIyWlLk6GJQsqaUBKTNV-1" vertex="1">
          <mxGeometry x="330" y="270" width="120" height="60" as="geometry" />
        </mxCell>
        <mxCell id="l0hXxtKMvYqcRxEXDyRQ-8" value="NSSF" style="rounded=1;whiteSpace=wrap;html=1;fontSize=20;" parent="WIyWlLk6GJQsqaUBKTNV-1" vertex="1">
          <mxGeometry x="460" y="270" width="120" height="60" as="geometry" />
        </mxCell>
        <mxCell id="l0hXxtKMvYqcRxEXDyRQ-9" value="NRF" style="rounded=1;whiteSpace=wrap;html=1;fontSize=20;" parent="WIyWlLk6GJQsqaUBKTNV-1" vertex="1">
          <mxGeometry x="720" y="170" width="120" height="60" as="geometry" />
        </mxCell>
        <mxCell id="l0hXxtKMvYqcRxEXDyRQ-10" value="WebUI" style="rounded=1;whiteSpace=wrap;html=1;fontSize=20;" parent="WIyWlLk6GJQsqaUBKTNV-1" vertex="1">
          <mxGeometry x="-90" y="170" width="120" height="60" as="geometry" />
        </mxCell>
        <mxCell id="l0hXxtKMvYqcRxEXDyRQ-15" value="" style="shape=link;html=1;rounded=0;entryX=0.97;entryY=0.5;entryDx=0;entryDy=0;entryPerimeter=0;exitX=0.036;exitY=0.499;exitDx=0;exitDy=0;exitPerimeter=0;fontSize=20;" parent="WIyWlLk6GJQsqaUBKTNV-1" target="l0hXxtKMvYqcRxEXDyRQ-0" edge="1">
          <mxGeometry width="100" relative="1" as="geometry">
            <mxPoint x="-80" y="249.29" as="sourcePoint" />
            <mxPoint x="690.2400000000001" y="249.29" as="targetPoint" />
          </mxGeometry>
        </mxCell>
        <mxCell id="l0hXxtKMvYqcRxEXDyRQ-18" value="Docker/100.0.0.0/24" style="edgeLabel;html=1;align=center;verticalAlign=middle;resizable=0;points=[];fontSize=20;" parent="l0hXxtKMvYqcRxEXDyRQ-15" vertex="1" connectable="0">
          <mxGeometry x="0.1039" y="1" relative="1" as="geometry">
            <mxPoint as="offset" />
          </mxGeometry>
        </mxCell>
        <mxCell id="l0hXxtKMvYqcRxEXDyRQ-16" value="SMF1" style="rounded=1;whiteSpace=wrap;html=1;fontSize=20;" parent="WIyWlLk6GJQsqaUBKTNV-1" vertex="1">
          <mxGeometry x="590" y="270" width="120" height="60" as="geometry" />
        </mxCell>
        <mxCell id="l0hXxtKMvYqcRxEXDyRQ-17" value="UPF1" style="rounded=1;whiteSpace=wrap;html=1;fontSize=20;" parent="WIyWlLk6GJQsqaUBKTNV-1" vertex="1">
          <mxGeometry x="720" y="270" width="120" height="60" as="geometry" />
        </mxCell>
        <mxCell id="l0hXxtKMvYqcRxEXDyRQ-20" value="&lt;b style=&quot;font-size: 20px;&quot;&gt;&lt;font style=&quot;font-size: 20px;&quot;&gt;Workstation 192.168.50.61&lt;/font&gt;&lt;/b&gt;" style="text;html=1;align=center;verticalAlign=middle;whiteSpace=wrap;rounded=0;fontSize=20;" parent="WIyWlLk6GJQsqaUBKTNV-1" vertex="1">
          <mxGeometry x="330" y="100" width="105" height="30" as="geometry" />
        </mxCell>
        <mxCell id="l0hXxtKMvYqcRxEXDyRQ-21" value="" style="shape=link;html=1;rounded=0;fontSize=20;" parent="WIyWlLk6GJQsqaUBKTNV-1" edge="1">
          <mxGeometry width="100" relative="1" as="geometry">
            <mxPoint x="280" y="476" as="sourcePoint" />
            <mxPoint x="780" y="476" as="targetPoint" />
          </mxGeometry>
        </mxCell>
        <mxCell id="l0hXxtKMvYqcRxEXDyRQ-24" value="internet/10.45.0.1" style="edgeLabel;html=1;align=center;verticalAlign=middle;resizable=0;points=[];fontSize=20;" parent="l0hXxtKMvYqcRxEXDyRQ-21" vertex="1" connectable="0">
          <mxGeometry x="0.0423" y="-3" relative="1" as="geometry">
            <mxPoint as="offset" />
          </mxGeometry>
        </mxCell>
        <mxCell id="l0hXxtKMvYqcRxEXDyRQ-35" value="" style="shape=image;verticalLabelPosition=bottom;labelBackgroundColor=default;verticalAlign=top;aspect=fixed;imageAspect=0;image=https://ingun.com/media/CMS%20Media/campaigns/5G/campaign-5G-icon-antenne_M-min.png;clipPath=inset(23.78% 31% 24.67% 31.33%);" parent="WIyWlLk6GJQsqaUBKTNV-1" vertex="1">
          <mxGeometry x="124.4" y="420" width="165.6" height="170" as="geometry" />
        </mxCell>
        <mxCell id="l0hXxtKMvYqcRxEXDyRQ-36" value="&lt;font style=&quot;font-size: 20px;&quot;&gt;Amarisoft&lt;/font&gt;&lt;div style=&quot;font-size: 20px;&quot;&gt;&lt;font style=&quot;font-size: 20px;&quot;&gt;192.168.50.60&lt;/font&gt;&lt;/div&gt;" style="text;html=1;align=center;verticalAlign=middle;whiteSpace=wrap;rounded=0;fontStyle=1" parent="WIyWlLk6GJQsqaUBKTNV-1" vertex="1">
          <mxGeometry x="178.60000000000002" y="380" width="57.2" height="30" as="geometry" />
        </mxCell>
        <mxCell id="l0hXxtKMvYqcRxEXDyRQ-43" value="&lt;b&gt;5G UE&lt;/b&gt;" style="rounded=1;whiteSpace=wrap;html=1;fontSize=20;" parent="WIyWlLk6GJQsqaUBKTNV-1" vertex="1">
          <mxGeometry x="-102" y="510" width="162" height="80" as="geometry" />
        </mxCell>
        <mxCell id="l0hXxtKMvYqcRxEXDyRQ-46" value="" style="shape=image;verticalLabelPosition=bottom;labelBackgroundColor=default;verticalAlign=top;aspect=fixed;imageAspect=0;image=https://icons.veryicon.com/png/o/miscellaneous/medium-thin-linear-icon/signal-28.png;rotation=70;fontSize=20;" parent="WIyWlLk6GJQsqaUBKTNV-1" vertex="1">
          <mxGeometry x="60" y="475" width="60" height="60" as="geometry" />
        </mxCell>
        <mxCell id="l0hXxtKMvYqcRxEXDyRQ-48" value="" style="shape=link;html=1;rounded=0;fontSize=20;exitX=1;exitY=0.5;exitDx=0;exitDy=0;" parent="WIyWlLk6GJQsqaUBKTNV-1" source="l0hXxtKMvYqcRxEXDyRQ-17" edge="1">
          <mxGeometry width="100" relative="1" as="geometry">
            <mxPoint x="780" y="330" as="sourcePoint" />
            <mxPoint x="1120" y="300" as="targetPoint" />
          </mxGeometry>
        </mxCell>
        <mxCell id="l0hXxtKMvYqcRxEXDyRQ-49" value="internet/10.45.0.1" style="edgeLabel;html=1;align=center;verticalAlign=middle;resizable=0;points=[];fontSize=20;" parent="l0hXxtKMvYqcRxEXDyRQ-48" vertex="1" connectable="0">
          <mxGeometry x="0.0423" y="-3" relative="1" as="geometry">
            <mxPoint as="offset" />
          </mxGeometry>
        </mxCell>
        <mxCell id="l0hXxtKMvYqcRxEXDyRQ-56" value="" style="shape=link;html=1;rounded=0;entryX=0.5;entryY=1;entryDx=0;entryDy=0;" parent="WIyWlLk6GJQsqaUBKTNV-1" target="l0hXxtKMvYqcRxEXDyRQ-17" edge="1">
          <mxGeometry width="100" relative="1" as="geometry">
            <mxPoint x="780" y="480" as="sourcePoint" />
            <mxPoint x="780" y="490" as="targetPoint" />
          </mxGeometry>
        </mxCell>
        <mxCell id="l0hXxtKMvYqcRxEXDyRQ-59" value="&lt;b style=&quot;font-size: 20px;&quot;&gt;Internet&lt;/b&gt;" style="ellipse;shape=cloud;whiteSpace=wrap;html=1;" parent="WIyWlLk6GJQsqaUBKTNV-1" vertex="1">
          <mxGeometry x="1100" y="235" width="195" height="130" as="geometry" />
        </mxCell>
        <mxCell id="l0hXxtKMvYqcRxEXDyRQ-60" value="MongoDB" style="rounded=1;whiteSpace=wrap;html=1;fontSize=20;" parent="WIyWlLk6GJQsqaUBKTNV-1" vertex="1">
          <mxGeometry x="-90" y="270" width="120" height="60" as="geometry" />
        </mxCell>
        <mxCell id="QunLEUrYHKaPr4piVvN3-0" value="" style="strokeWidth=2;html=1;shape=mxgraph.flowchart.annotation_2;align=left;labelPosition=right;pointerEvents=1;rotation=-90;" parent="WIyWlLk6GJQsqaUBKTNV-1" vertex="1">
          <mxGeometry x="65" y="460" width="50" height="420" as="geometry" />
        </mxCell>
        <mxCell id="QunLEUrYHKaPr4piVvN3-1" value="&lt;font style=&quot;font-size: 20px;&quot;&gt;This is UERANSIM in &lt;i&gt;Deployment 1 &lt;/i&gt;and is&lt;/font&gt;&lt;div&gt;&lt;font style=&quot;font-size: 20px;&quot;&gt;&amp;nbsp;deployed as 2 containers in Workstation&lt;/font&gt;&lt;/div&gt;" style="text;html=1;align=center;verticalAlign=middle;resizable=0;points=[];autosize=1;strokeColor=none;fillColor=none;" parent="WIyWlLk6GJQsqaUBKTNV-1" vertex="1">
          <mxGeometry x="-110" y="703" width="400" height="60" as="geometry" />
        </mxCell>
      </root>
    </mxGraphModel>
  </diagram>
</mxfile>
